<?xml version="1.0" standalone="no"?>
<!DOCTYPE svg PUBLIC "-//W3C//DTD SVG 20010904//EN"
 "http://www.w3.org/TR/2001/REC-SVG-20010904/DTD/svg10.dtd">
<svg version="1.0" xmlns="http://www.w3.org/2000/svg"
 width="496.000000pt" height="198.000000pt" viewBox="0 0 496.000000 198.000000"
 preserveAspectRatio="xMidYMid meet">

<g transform="translate(0.000000,198.000000) scale(0.100000,-0.100000)"
fill="#000000" stroke="none">
<path d="M0 990 l0 -990 2480 0 2480 0 0 990 0 990 -2480 0 -2480 0 0 -990z
m3420 831 c0 -25 6 -31 36 -41 32 -11 39 -10 66 10 l30 22 29 -28 c33 -31 36
-50 13 -75 -15 -16 -15 -22 1 -63 15 -40 22 -46 46 -46 28 0 29 -2 29 -50 0
-48 -1 -50 -27 -50 -24 0 -31 -7 -47 -45 -18 -44 -18 -47 0 -66 17 -19 17 -21
-14 -51 -30 -31 -32 -31 -51 -14 -19 17 -23 18 -55 2 -19 -9 -39 -16 -45 -16
-6 0 -11 -13 -11 -30 0 -30 -1 -30 -55 -30 -48 0 -55 2 -55 20 0 25 -54 49
-95 43 -24 -4 -36 2 -59 26 -28 30 -29 31 -12 50 17 19 17 22 1 65 -15 40 -21
46 -47 46 -28 0 -29 1 -26 48 3 42 6 47 29 50 21 2 30 12 44 48 16 43 16 46
-1 65 -17 19 -17 21 14 51 30 31 32 31 51 14 19 -17 22 -17 65 -1 35 14 46 23
46 40 0 30 7 35 57 35 41 0 43 -1 43 -29z m560 -342 c0 -28 66 -56 93 -39 16
9 23 8 43 -11 22 -20 22 -24 9 -39 -14 -15 -14 -21 0 -53 10 -24 22 -37 37
-39 19 -2 23 -9 23 -38 0 -29 -4 -36 -23 -38 -15 -2 -27 -15 -37 -39 -14 -32
-14 -38 0 -53 13 -15 13 -19 -9 -39 -14 -13 -29 -20 -35 -16 -18 10 -81 -17
-81 -36 0 -25 -28 -45 -42 -31 -7 7 -20 12 -30 12 -12 0 -18 8 -18 23 0 31
-70 58 -95 37 -14 -11 -19 -10 -38 8 -19 19 -20 25 -9 43 19 30 -4 89 -35 89
-20 0 -23 5 -23 40 0 35 3 40 23 40 31 0 54 59 35 89 -11 18 -10 24 9 43 19
18 24 19 38 8 25 -21 95 6 95 37 0 20 5 23 35 23 29 0 35 -4 35 -21z m-3560
-129 c18 -18 20 -33 20 -130 0 -134 -10 -150 -90 -150 l-49 0 -3 -72 -3 -73
-37 -3 -38 -3 0 225 0 226 90 0 c77 0 93 -3 110 -20z m295 -5 c23 -22 25 -31
25 -123 0 -83 -3 -103 -19 -124 -20 -24 -20 -26 -1 -99 11 -41 20 -75 20 -76
0 -2 -18 -3 -39 -3 -40 0 -40 0 -56 58 -9 31 -18 65 -21 75 -3 9 -12 17 -19
17 -11 0 -15 -19 -17 -72 l-3 -73 -37 -3 -38 -3 0 225 0 226 90 0 c83 0 93 -2
115 -25z m315 -15 l0 -40 -75 0 -75 0 0 -55 0 -55 61 0 60 0 -3 -37 -3 -38
-57 -3 -58 -3 0 -49 0 -49 73 -3 72 -3 3 -37 3 -38 -115 0 -116 0 0 218 c0
120 3 222 7 225 3 4 55 7 115 7 l108 0 0 -40z m264 19 l26 -20 0 -185 c0 -231
4 -224 -135 -224 l-95 0 0 218 c0 120 3 222 7 225 3 4 43 7 88 7 68 0 87 -4
109 -21z m171 -204 l0 -220 -37 -3 -38 -3 0 226 0 226 38 -3 37 -3 0 -220z
m265 207 c18 -14 24 -32 28 -75 l4 -57 -40 0 c-39 0 -41 2 -44 33 -3 28 -7 32
-35 35 l-33 3 0 -145 0 -146 35 0 c33 0 35 2 35 35 0 34 1 35 41 35 l41 0 -4
-57 c-7 -77 -27 -93 -119 -93 -108 0 -109 2 -109 226 l0 183 26 20 c36 28 141
30 174 3z m308 -19 c-3 -36 -5 -38 -40 -41 l-38 -3 0 -185 0 -185 -37 3 -38 3
-3 183 -2 182 -35 0 c-34 0 -35 1 -35 40 l0 40 116 0 115 0 -3 -37z m132 -188
l0 -225 -40 0 -40 0 0 225 0 225 40 0 40 0 0 -225z m133 213 c2 -7 15 -70 27
-141 13 -70 27 -124 30 -120 4 5 17 60 29 123 30 158 27 150 66 150 19 0 36
-3 38 -7 2 -5 -18 -105 -44 -223 -27 -118 -49 -216 -49 -217 0 -2 -18 -3 -39
-3 -29 0 -41 5 -45 18 -5 17 -96 423 -96 429 0 10 79 1 83 -9z m472 -28 l0
-35 -72 -3 -73 -3 0 -54 0 -55 56 0 55 0 -3 -37 -3 -38 -52 -3 -53 -3 0 -49 0
-49 73 -3 72 -3 0 -35 0 -35 -112 -3 -113 -3 0 226 0 226 113 -3 112 -3 0 -35z
m755 -154 c9 -23 52 -42 71 -30 17 10 40 -16 30 -34 -12 -20 13 -72 34 -72 9
0 15 -10 15 -25 0 -17 -5 -25 -18 -25 -21 0 -43 -51 -31 -71 11 -18 -10 -41
-31 -34 -26 8 -60 -8 -73 -35 -16 -32 -56 -39 -64 -11 -5 20 -39 38 -51 27 -3
-3 -16 4 -29 16 -16 15 -20 25 -13 33 16 19 -8 75 -31 75 -14 0 -19 7 -19 25
0 17 5 25 18 25 21 0 47 59 32 74 -16 16 19 49 37 35 19 -16 73 8 73 32 0 28
38 24 50 -5z m-3230 -558 c19 -38 38 -68 41 -68 4 0 21 32 38 71 27 60 35 70
54 67 21 -3 22 -8 25 -115 3 -108 2 -113 -18 -113 -18 0 -20 6 -20 78 l-1 77
-35 -67 c-19 -38 -40 -68 -47 -68 -7 0 -27 28 -44 63 l-32 62 0 -72 c-1 -66
-3 -73 -21 -73 -19 0 -20 7 -20 116 0 114 0 115 23 112 16 -2 32 -22 57 -70z
m411 -38 c26 -58 48 -108 48 -112 2 -20 -41 -5 -51 17 -10 22 -17 25 -65 25
-47 0 -55 -3 -65 -25 -10 -22 -48 -36 -48 -17 0 4 21 56 47 115 61 141 70 141
134 -3z m157 -8 l3 -112 -26 0 -25 0 0 108 c0 60 3 112 7 116 4 4 14 5 23 4
12 -3 16 -24 18 -116z m191 36 l61 -82 0 83 c0 73 2 82 18 79 15 -3 17 -18 20
-116 3 -111 2 -112 -20 -112 -17 0 -38 21 -78 76 l-55 76 -3 -76 c-3 -68 -5
-76 -22 -76 -19 0 -20 7 -20 115 0 106 1 115 19 115 12 0 41 -30 80 -82z m351
62 c0 -16 -7 -20 -35 -20 l-35 0 0 -95 c0 -88 -1 -95 -20 -95 -19 0 -20 7 -20
95 l0 95 -35 0 c-28 0 -35 4 -35 20 0 19 7 20 90 20 83 0 90 -1 90 -20z m230
0 c0 -18 -7 -20 -60 -20 l-60 0 0 -30 c0 -30 1 -30 55 -30 48 0 55 -2 55 -20
0 -18 -7 -20 -55 -20 -52 0 -55 -1 -55 -25 0 -23 4 -24 62 -27 50 -2 63 -6 66
-20 3 -16 -6 -18 -82 -18 l-86 0 0 115 0 115 80 0 c73 0 80 -2 80 -20z m180
-58 l55 -72 5 72 c4 59 8 73 23 76 15 3 17 -7 17 -112 0 -107 -1 -116 -19
-116 -12 0 -39 27 -73 72 l-53 72 -3 -72 c-3 -69 -4 -72 -27 -72 l-25 0 0 108
c0 60 3 112 7 116 16 16 41 -3 93 -72z m310 74 c0 -2 22 -54 50 -115 48 -108
48 -111 26 -111 -15 0 -27 9 -34 25 -10 22 -18 25 -65 25 -48 0 -55 -3 -65
-25 -7 -15 -20 -25 -32 -25 -11 0 -20 2 -20 4 0 2 16 39 36 82 20 44 42 94 49
112 9 21 21 32 34 32 12 0 21 -2 21 -4z m257 -73 l58 -77 3 77 c3 69 5 77 22
77 19 0 20 -7 20 -115 0 -108 -1 -115 -20 -115 -13 0 -39 26 -77 77 l-58 77
-3 -77 c-3 -69 -5 -77 -22 -77 -19 0 -20 7 -20 108 0 153 12 158 97 45z m349
61 c37 -18 41 -26 21 -42 -8 -7 -18 -6 -31 4 -47 34 -116 -3 -116 -62 0 -60
64 -94 120 -64 13 7 21 6 29 -4 30 -36 -80 -61 -137 -32 -79 41 -72 165 11
201 42 19 62 18 103 -1z m274 -4 c0 -18 -7 -20 -60 -20 l-60 0 0 -30 c0 -30 0
-30 56 -30 47 0 55 -3 52 -17 -2 -14 -15 -19 -56 -21 -48 -3 -52 -5 -52 -28 0
-23 3 -24 60 -24 53 0 60 -2 60 -20 0 -18 -7 -20 -85 -20 l-85 0 0 108 c0 60
3 112 7 115 3 4 42 7 85 7 71 0 78 -2 78 -20z m339 1 c8 -5 11 -16 8 -25 -5
-14 -11 -15 -27 -6 -32 17 -75 9 -75 -15 0 -14 12 -24 44 -36 73 -27 91 -71
45 -108 -41 -32 -126 -23 -140 14 -10 25 0 27 41 9 30 -12 44 -13 62 -5 35 16
25 32 -40 63 -48 24 -57 32 -57 55 0 42 26 63 79 63 25 0 52 -4 60 -9z m130
-18 c6 -16 20 -39 30 -52 l18 -24 29 52 c18 31 36 51 47 51 9 0 17 -2 17 -4 0
-2 -18 -36 -40 -75 -26 -45 -40 -83 -40 -106 0 -24 -4 -35 -15 -35 -10 0 -15
10 -15 34 0 20 -16 62 -40 106 -22 40 -40 74 -40 76 0 2 8 4 19 4 11 0 23 -11
30 -27z m350 18 c8 -5 11 -16 8 -25 -5 -14 -11 -15 -27 -6 -32 17 -75 9 -75
-15 0 -14 12 -24 44 -36 73 -27 91 -71 45 -108 -41 -32 -126 -23 -140 14 -10
25 0 27 41 9 30 -12 44 -13 62 -5 35 16 25 32 -40 63 -48 24 -57 32 -57 55 0
42 26 63 79 63 25 0 52 -4 60 -9z m251 -6 c0 -10 -11 -15 -35 -15 l-35 0 0
-95 c0 -78 -3 -95 -15 -95 -12 0 -15 17 -15 95 l0 95 -35 0 c-24 0 -35 5 -35
15 0 12 16 15 85 15 69 0 85 -3 85 -15z m240 0 c0 -12 -14 -15 -65 -15 l-65 0
0 -30 c0 -30 1 -30 55 -30 41 0 55 -4 55 -14 0 -11 -15 -16 -52 -18 -51 -3
-53 -4 -53 -33 0 -30 0 -30 63 -33 46 -2 62 -7 62 -17 0 -12 -17 -15 -80 -15
l-80 0 0 110 0 110 80 0 c64 0 80 -3 80 -15z m166 -57 l37 -73 36 73 c28 58
40 72 58 72 23 0 23 -2 23 -110 0 -90 -3 -110 -15 -110 -11 0 -15 18 -17 83
l-3 82 -35 -70 c-19 -38 -40 -71 -45 -72 -6 -2 -27 29 -47 69 l-37 73 0 -82
c-1 -76 -3 -83 -21 -83 -19 0 -20 7 -20 110 l0 110 25 0 c21 0 31 -12 61 -72z"/>
<path d="M3305 1696 c-96 -43 -124 -171 -55 -250 39 -44 79 -60 139 -54 190
18 185 300 -6 315 -28 2 -61 -3 -78 -11z"/>
<path d="M3878 1374 c-56 -30 -78 -122 -43 -181 56 -95 198 -80 235 25 13 37
13 47 0 84 -27 76 -120 112 -192 72z"/>
<path d="M300 1220 l0 -70 30 0 30 0 0 70 0 70 -30 0 -30 0 0 -70z"/>
<path d="M590 1220 l0 -70 35 0 35 0 0 70 0 70 -35 0 -35 0 0 -70z"/>
<path d="M1170 1145 l0 -145 35 0 35 0 0 145 0 145 -35 0 -35 0 0 -145z"/>
<path d="M3464 1110 c-62 -25 -82 -107 -39 -158 62 -74 175 -33 175 62 -1 77
-68 124 -136 96z"/>
<path d="M625 596 c-9 -21 -14 -40 -12 -43 3 -2 18 -3 35 -1 l29 3 -17 40 -18
40 -17 -39z"/>
<path d="M2087 593 l-15 -38 30 -3 c16 -2 32 -1 35 1 5 5 -23 77 -30 77 -3 0
-12 -17 -20 -37z"/>
</g>
</svg>
